<mxfile host="app.diagrams.net" agent="Mozilla/5.0 (X11; Linux x86_64) AppleWebKit/537.36 (KHTML, like Gecko) Chrome/133.0.0.0 Safari/537.36" version="26.0.16">
  <diagram name="페이지-1" id="FnOj760xpiRkMvEDs_VJ">
    <mxGraphModel dx="3558" dy="1182" grid="1" gridSize="10" guides="1" tooltips="1" connect="1" arrows="1" fold="1" page="1" pageScale="1" pageWidth="827" pageHeight="1169" math="0" shadow="0">
      <root>
        <mxCell id="0" />
        <mxCell id="1" parent="0" />
        <mxCell id="X57t-leLHqUfVTdEqSsv-1" value="" style="whiteSpace=wrap;html=1;" vertex="1" parent="1">
          <mxGeometry x="-510" y="120" width="1270" height="540" as="geometry" />
        </mxCell>
        <mxCell id="X57t-leLHqUfVTdEqSsv-2" value="&lt;b&gt;&lt;font style=&quot;font-size: 19px;&quot;&gt;NANA Motion Plan and Executor Framework&lt;/font&gt;&lt;/b&gt;" style="text;strokeColor=none;align=center;fillColor=none;html=1;verticalAlign=middle;whiteSpace=wrap;rounded=0;fontStyle=4" vertex="1" parent="1">
          <mxGeometry x="-510" y="80" width="1260" height="15.25" as="geometry" />
        </mxCell>
        <mxCell id="X57t-leLHqUfVTdEqSsv-3" value="&lt;b&gt;&lt;font style=&quot;font-size: 24px;&quot;&gt;로봇 모델링 파일&lt;/font&gt;&lt;/b&gt;" style="whiteSpace=wrap;html=1;fillColor=#a20025;fontColor=#ffffff;strokeColor=#6F0000;" vertex="1" parent="1">
          <mxGeometry x="-460" y="190" width="230" height="100" as="geometry" />
        </mxCell>
        <mxCell id="X57t-leLHqUfVTdEqSsv-4" value="&lt;span style=&quot;font-size: 24px;&quot;&gt;&lt;b&gt;컨트롤러 매니저&lt;/b&gt;&lt;/span&gt;" style="whiteSpace=wrap;html=1;fillColor=#a20025;fontColor=#ffffff;strokeColor=#6F0000;" vertex="1" parent="1">
          <mxGeometry x="-460" y="330" width="230" height="100" as="geometry" />
        </mxCell>
        <mxCell id="X57t-leLHqUfVTdEqSsv-6" value="&lt;font style=&quot;font-size: 24px;&quot;&gt;&lt;b&gt;MoveIt2 설정 파일&lt;/b&gt;&lt;/font&gt;" style="whiteSpace=wrap;html=1;fillColor=#a20025;fontColor=#ffffff;strokeColor=#6F0000;" vertex="1" parent="1">
          <mxGeometry x="-460" y="470" width="230" height="90" as="geometry" />
        </mxCell>
        <mxCell id="X57t-leLHqUfVTdEqSsv-7" value="&lt;b&gt;&lt;font style=&quot;font-size: 18px;&quot;&gt;nana_bringup.launch.py&lt;/font&gt;&lt;/b&gt;" style="ellipse;whiteSpace=wrap;html=1;fillColor=#a20025;fontColor=#ffffff;strokeColor=#6F0000;" vertex="1" parent="1">
          <mxGeometry x="-20" y="200" width="280" height="90" as="geometry" />
        </mxCell>
        <mxCell id="X57t-leLHqUfVTdEqSsv-8" value="" style="edgeStyle=none;orthogonalLoop=1;jettySize=auto;html=1;rounded=0;exitX=1;exitY=0.5;exitDx=0;exitDy=0;entryX=0;entryY=0.5;entryDx=0;entryDy=0;" edge="1" parent="1" source="X57t-leLHqUfVTdEqSsv-3" target="X57t-leLHqUfVTdEqSsv-7">
          <mxGeometry width="80" relative="1" as="geometry">
            <mxPoint x="-30" y="370" as="sourcePoint" />
            <mxPoint x="50" y="370" as="targetPoint" />
            <Array as="points" />
          </mxGeometry>
        </mxCell>
        <mxCell id="X57t-leLHqUfVTdEqSsv-9" value="&lt;b&gt;&lt;font style=&quot;font-size: 18px;&quot;&gt;nana_moveit_core.launch.py&lt;/font&gt;&lt;/b&gt;" style="ellipse;whiteSpace=wrap;html=1;fillColor=#a20025;fontColor=#ffffff;strokeColor=#6F0000;" vertex="1" parent="1">
          <mxGeometry x="-15" y="470" width="285" height="90" as="geometry" />
        </mxCell>
        <mxCell id="X57t-leLHqUfVTdEqSsv-10" value="" style="edgeStyle=none;orthogonalLoop=1;jettySize=auto;html=1;rounded=0;entryX=0;entryY=0.5;entryDx=0;entryDy=0;" edge="1" parent="1" target="X57t-leLHqUfVTdEqSsv-9">
          <mxGeometry width="80" relative="1" as="geometry">
            <mxPoint x="-230" y="515" as="sourcePoint" />
            <mxPoint x="-30" y="520" as="targetPoint" />
            <Array as="points" />
          </mxGeometry>
        </mxCell>
        <mxCell id="X57t-leLHqUfVTdEqSsv-12" value="" style="edgeStyle=none;orthogonalLoop=1;jettySize=auto;html=1;rounded=0;entryX=0;entryY=0.5;entryDx=0;entryDy=0;exitX=1;exitY=0.5;exitDx=0;exitDy=0;" edge="1" parent="1" source="X57t-leLHqUfVTdEqSsv-4" target="X57t-leLHqUfVTdEqSsv-7">
          <mxGeometry width="80" relative="1" as="geometry">
            <mxPoint x="-220" y="379.41" as="sourcePoint" />
            <mxPoint x="-140" y="379.41" as="targetPoint" />
            <Array as="points" />
          </mxGeometry>
        </mxCell>
        <mxCell id="X57t-leLHqUfVTdEqSsv-13" value="&lt;span style=&quot;font-size: 18px;&quot;&gt;&lt;b&gt;Controller&lt;/b&gt;&lt;/span&gt;" style="ellipse;whiteSpace=wrap;html=1;fillColor=#60a917;fontColor=#ffffff;strokeColor=#2D7600;" vertex="1" parent="1">
          <mxGeometry x="425" y="160" width="260" height="80" as="geometry" />
        </mxCell>
        <mxCell id="X57t-leLHqUfVTdEqSsv-14" value="&lt;font style=&quot;font-size: 18px;&quot;&gt;Planner&lt;/font&gt;" style="ellipse;whiteSpace=wrap;html=1;fontStyle=1;fillColor=#60a917;fontColor=#ffffff;strokeColor=#2D7600;" vertex="1" parent="1">
          <mxGeometry x="425" y="290" width="260" height="80" as="geometry" />
        </mxCell>
        <mxCell id="X57t-leLHqUfVTdEqSsv-16" value="" style="whiteSpace=wrap;html=1;" vertex="1" parent="1">
          <mxGeometry x="350" y="430" width="410" height="230" as="geometry" />
        </mxCell>
        <mxCell id="X57t-leLHqUfVTdEqSsv-17" value="&lt;font style=&quot;font-size: 32px;&quot;&gt;&lt;b&gt;로봇&lt;/b&gt;&lt;/font&gt;" style="whiteSpace=wrap;html=1;fillColor=#1ba1e2;fontColor=#ffffff;strokeColor=#006EAF;" vertex="1" parent="1">
          <mxGeometry x="920" y="120" width="210" height="120" as="geometry" />
        </mxCell>
        <mxCell id="X57t-leLHqUfVTdEqSsv-18" value="" style="edgeStyle=none;orthogonalLoop=1;jettySize=auto;html=1;rounded=0;entryX=0;entryY=0.25;entryDx=0;entryDy=0;" edge="1" parent="1" target="X57t-leLHqUfVTdEqSsv-17">
          <mxGeometry width="80" relative="1" as="geometry">
            <mxPoint x="760" y="150" as="sourcePoint" />
            <mxPoint x="840" y="150" as="targetPoint" />
            <Array as="points" />
          </mxGeometry>
        </mxCell>
        <mxCell id="X57t-leLHqUfVTdEqSsv-19" value="" style="edgeStyle=none;orthogonalLoop=1;jettySize=auto;html=1;rounded=0;entryX=1;entryY=0.151;entryDx=0;entryDy=0;entryPerimeter=0;exitX=0.001;exitY=0.681;exitDx=0;exitDy=0;exitPerimeter=0;" edge="1" parent="1" source="X57t-leLHqUfVTdEqSsv-17" target="X57t-leLHqUfVTdEqSsv-1">
          <mxGeometry width="80" relative="1" as="geometry">
            <mxPoint x="820" y="288.33000000000004" as="sourcePoint" />
            <mxPoint x="980" y="288.33000000000004" as="targetPoint" />
            <Array as="points" />
          </mxGeometry>
        </mxCell>
        <mxCell id="X57t-leLHqUfVTdEqSsv-20" value="&lt;b&gt;제어&lt;/b&gt;" style="text;strokeColor=none;align=center;fillColor=none;html=1;verticalAlign=middle;whiteSpace=wrap;rounded=0;" vertex="1" parent="1">
          <mxGeometry x="810" y="110" width="60" height="30" as="geometry" />
        </mxCell>
        <mxCell id="X57t-leLHqUfVTdEqSsv-21" value="&lt;b&gt;모니터링&lt;/b&gt;" style="text;strokeColor=none;align=center;fillColor=none;html=1;verticalAlign=middle;whiteSpace=wrap;rounded=0;" vertex="1" parent="1">
          <mxGeometry x="810" y="165" width="60" height="30" as="geometry" />
        </mxCell>
        <mxCell id="X57t-leLHqUfVTdEqSsv-23" value="" style="edgeStyle=none;orthogonalLoop=1;jettySize=auto;html=1;rounded=0;entryX=0;entryY=0.5;entryDx=0;entryDy=0;" edge="1" parent="1" target="X57t-leLHqUfVTdEqSsv-13">
          <mxGeometry width="80" relative="1" as="geometry">
            <mxPoint x="260" y="244.23000000000002" as="sourcePoint" />
            <mxPoint x="340" y="244.23000000000002" as="targetPoint" />
            <Array as="points" />
          </mxGeometry>
        </mxCell>
        <mxCell id="X57t-leLHqUfVTdEqSsv-24" value="" style="edgeStyle=none;orthogonalLoop=1;jettySize=auto;html=1;rounded=0;entryX=1;entryY=0.5;entryDx=0;entryDy=0;exitX=0;exitY=0.5;exitDx=0;exitDy=0;" edge="1" parent="1" source="X57t-leLHqUfVTdEqSsv-14" target="X57t-leLHqUfVTdEqSsv-9">
          <mxGeometry width="80" relative="1" as="geometry">
            <mxPoint x="330" y="368.46" as="sourcePoint" />
            <mxPoint x="410" y="368.46" as="targetPoint" />
            <Array as="points" />
          </mxGeometry>
        </mxCell>
        <mxCell id="X57t-leLHqUfVTdEqSsv-25" value="" style="edgeStyle=none;orthogonalLoop=1;jettySize=auto;html=1;rounded=0;entryX=0;entryY=0.5;entryDx=0;entryDy=0;exitX=0.5;exitY=0;exitDx=0;exitDy=0;" edge="1" parent="1" source="X57t-leLHqUfVTdEqSsv-9" target="X57t-leLHqUfVTdEqSsv-13">
          <mxGeometry width="80" relative="1" as="geometry">
            <mxPoint x="190" y="350" as="sourcePoint" />
            <mxPoint x="270" y="350" as="targetPoint" />
            <Array as="points" />
          </mxGeometry>
        </mxCell>
        <mxCell id="X57t-leLHqUfVTdEqSsv-28" value="&lt;b&gt;OpenManipulatorX repo&lt;/b&gt;" style="text;strokeColor=none;align=center;fillColor=none;html=1;verticalAlign=middle;whiteSpace=wrap;rounded=0;" vertex="1" parent="1">
          <mxGeometry x="365" y="440" width="385" height="30" as="geometry" />
        </mxCell>
        <mxCell id="X57t-leLHqUfVTdEqSsv-29" value="&lt;b&gt;MoveIt2! ROS2 Control&lt;/b&gt;" style="text;strokeColor=none;align=center;fillColor=none;html=1;verticalAlign=middle;whiteSpace=wrap;rounded=0;" vertex="1" parent="1">
          <mxGeometry x="365" y="480" width="385" height="30" as="geometry" />
        </mxCell>
        <mxCell id="X57t-leLHqUfVTdEqSsv-30" value="&lt;b&gt;Dynamixel SDK&lt;/b&gt;" style="text;strokeColor=none;align=center;fillColor=none;html=1;verticalAlign=middle;whiteSpace=wrap;rounded=0;" vertex="1" parent="1">
          <mxGeometry x="365" y="520" width="385" height="30" as="geometry" />
        </mxCell>
        <mxCell id="X57t-leLHqUfVTdEqSsv-31" value="&lt;b&gt;ROS2 Humble&lt;/b&gt;" style="text;strokeColor=none;align=center;fillColor=none;html=1;verticalAlign=middle;whiteSpace=wrap;rounded=0;" vertex="1" parent="1">
          <mxGeometry x="365" y="560" width="385" height="30" as="geometry" />
        </mxCell>
      </root>
    </mxGraphModel>
  </diagram>
</mxfile>
